<?xml version="1.0" encoding="UTF-8"?>
<svg width="100%" height="56" viewBox="0 0 1200 56" xmlns="http://www.w3.org/2000/svg"
     preserveAspectRatio="none" role="img" aria-label="Differential pair wave animation">

  <!-- parâmetros visuais -->
  <!-- linha central = 28px; amplitude = 12px (topo 16, base 40) -->

  <!-- onda A (azul) -->
  <path d="
    M0 28
    C30 16, 70 16, 100 28
    C130 40,170 40,200 28
    C230 16,270 16,300 28
    C330 40,370 40,400 28
    C430 16,470 16,500 28
    C530 40,570 40,600 28
    C630 16,670 16,700 28
    C730 40,770 40,800 28
    C830 16,870 16,900 28
    C930 40,970 40,1000 28
    C1030 16,1070 16,1100 28
    C1130 40,1170 40,1200 28
  "
    fill="none" stroke="#3b82f6" stroke-width="3" stroke-linecap="round"
    stroke-dasharray="2400" stroke-dashoffset="0">
    <animate attributeName="stroke-dashoffset" from="2400" to="0" dur="5s" repeatCount="indefinite"/>
  </path>

  <!-- onda B (laranja, 180° defasada) -->
  <path d="
    M0 28
    C30 40, 70 40, 100 28
    C130 16,170 16,200 28
    C230 40,270 40,300 28
    C330 16,370 16,400 28
    C430 40,470 40,500 28
    C530 16,570 16,600 28
    C630 40,670 40,700 28
    C730 16,770 16,800 28
    C830 40,870 40,900 28
    C930 16,970 16,1000 28
    C1030 40,1070 40,1100 28
    C1130 16,1170 16,1200 28
  "
    fill="none" stroke="#f97316" stroke-width="3" stroke-linecap="round"
    stroke-dasharray="2400" stroke-dashoffset="0">
    <animate attributeName="stroke-dashoffset" from="2400" to="0" dur="5s" repeatCount="indefinite"/>
  </path>
</svg>

